<mxfile host="app.diagrams.net" agent="Mozilla/5.0 (Windows NT 10.0; Win64; x64) AppleWebKit/537.36 (KHTML, like Gecko) Chrome/131.0.0.0 Safari/537.36 Edg/131.0.0.0" version="25.0.3">
  <diagram name="Page-1" id="gLo6yfBA45xpCXMqz-ns">
    <mxGraphModel dx="1042" dy="535" grid="1" gridSize="10" guides="1" tooltips="1" connect="1" arrows="1" fold="1" page="1" pageScale="1" pageWidth="850" pageHeight="1100" math="0" shadow="0">
      <root>
        <mxCell id="0" />
        <mxCell id="1" parent="0" />
        <mxCell id="BozT58qzWdpXFKe4H0U9-1" value="" style="ellipse;whiteSpace=wrap;html=1;fillColor=#000033;strokeColor=#000033;fontFamily=Times New Roman;horizontal=1;" vertex="1" parent="1">
          <mxGeometry x="180" y="30" width="120" height="80" as="geometry" />
        </mxCell>
        <mxCell id="BozT58qzWdpXFKe4H0U9-5" value="&lt;font color=&quot;#ffffff&quot;&gt;Nhập số a,b&lt;/font&gt;" style="text;strokeColor=none;align=center;fillColor=none;html=1;verticalAlign=middle;whiteSpace=wrap;rounded=0;" vertex="1" parent="1">
          <mxGeometry x="190" y="167.5" width="90" height="45" as="geometry" />
        </mxCell>
        <mxCell id="BozT58qzWdpXFKe4H0U9-6" value="Start" style="text;strokeColor=none;align=center;fillColor=none;html=1;verticalAlign=middle;whiteSpace=wrap;rounded=0;fontColor=#FFFFFF;fontSize=20;" vertex="1" parent="1">
          <mxGeometry x="210" y="52.5" width="60" height="35" as="geometry" />
        </mxCell>
        <mxCell id="BozT58qzWdpXFKe4H0U9-7" value="" style="shape=parallelogram;html=1;strokeWidth=2;perimeter=parallelogramPerimeter;whiteSpace=wrap;rounded=1;arcSize=12;size=0.23;fontColor=#FFFFFF;strokeColor=#000033;fillColor=#000033;" vertex="1" parent="1">
          <mxGeometry x="180" y="160" width="100" height="60" as="geometry" />
        </mxCell>
        <mxCell id="BozT58qzWdpXFKe4H0U9-8" value="&lt;font color=&quot;#ffffff&quot;&gt;Nhập số a,b&lt;/font&gt;" style="text;strokeColor=none;align=center;fillColor=none;html=1;verticalAlign=middle;whiteSpace=wrap;rounded=0;" vertex="1" parent="1">
          <mxGeometry x="185" y="167.5" width="90" height="45" as="geometry" />
        </mxCell>
        <mxCell id="BozT58qzWdpXFKe4H0U9-10" value="" style="strokeWidth=2;html=1;shape=mxgraph.flowchart.decision;whiteSpace=wrap;fillColor=#000033;" vertex="1" parent="1">
          <mxGeometry x="180" y="270" width="100" height="70" as="geometry" />
        </mxCell>
        <mxCell id="BozT58qzWdpXFKe4H0U9-11" value="&lt;font color=&quot;#ffffff&quot;&gt;a&amp;gt;b?&lt;/font&gt;" style="text;strokeColor=none;align=center;fillColor=none;html=1;verticalAlign=middle;whiteSpace=wrap;rounded=0;" vertex="1" parent="1">
          <mxGeometry x="185" y="282.5" width="90" height="45" as="geometry" />
        </mxCell>
        <mxCell id="BozT58qzWdpXFKe4H0U9-12" value="" style="rounded=1;whiteSpace=wrap;html=1;absoluteArcSize=1;arcSize=14;strokeWidth=2;fillColor=#000033;" vertex="1" parent="1">
          <mxGeometry x="70" y="370" width="100" height="60" as="geometry" />
        </mxCell>
        <mxCell id="BozT58qzWdpXFKe4H0U9-13" value="" style="rounded=1;whiteSpace=wrap;html=1;absoluteArcSize=1;arcSize=14;strokeWidth=2;fillColor=#000033;" vertex="1" parent="1">
          <mxGeometry x="300" y="362.5" width="100" height="60" as="geometry" />
        </mxCell>
        <mxCell id="BozT58qzWdpXFKe4H0U9-14" value="" style="ellipse;whiteSpace=wrap;html=1;fillColor=#000033;strokeColor=#000033;fontFamily=Times New Roman;horizontal=1;" vertex="1" parent="1">
          <mxGeometry x="180" y="430" width="120" height="80" as="geometry" />
        </mxCell>
        <mxCell id="BozT58qzWdpXFKe4H0U9-15" value="End" style="text;strokeColor=none;align=center;fillColor=none;html=1;verticalAlign=middle;whiteSpace=wrap;rounded=0;fontColor=#FFFFFF;fontSize=20;" vertex="1" parent="1">
          <mxGeometry x="215" y="452.5" width="60" height="35" as="geometry" />
        </mxCell>
        <mxCell id="BozT58qzWdpXFKe4H0U9-16" value="&lt;font color=&quot;#ffffff&quot;&gt;In&quot; a lớn hơn b&quot;&lt;/font&gt;" style="text;strokeColor=none;align=center;fillColor=none;html=1;verticalAlign=middle;whiteSpace=wrap;rounded=0;" vertex="1" parent="1">
          <mxGeometry x="75" y="377.5" width="90" height="45" as="geometry" />
        </mxCell>
        <mxCell id="BozT58qzWdpXFKe4H0U9-17" value="&lt;font color=&quot;#ffffff&quot;&gt;In &quot;a nhỏ hơn b&quot;&lt;/font&gt;" style="text;strokeColor=none;align=center;fillColor=none;html=1;verticalAlign=middle;whiteSpace=wrap;rounded=0;" vertex="1" parent="1">
          <mxGeometry x="305" y="370" width="90" height="45" as="geometry" />
        </mxCell>
        <mxCell id="BozT58qzWdpXFKe4H0U9-20" value="" style="endArrow=none;html=1;rounded=0;exitX=0.596;exitY=-0.033;exitDx=0;exitDy=0;exitPerimeter=0;" edge="1" parent="1" source="BozT58qzWdpXFKe4H0U9-7" target="BozT58qzWdpXFKe4H0U9-1">
          <mxGeometry width="50" height="50" relative="1" as="geometry">
            <mxPoint x="305" y="160" as="sourcePoint" />
            <mxPoint x="310" y="90" as="targetPoint" />
            <Array as="points" />
          </mxGeometry>
        </mxCell>
        <mxCell id="BozT58qzWdpXFKe4H0U9-21" value="" style="endArrow=none;html=1;rounded=0;entryX=0.5;entryY=1;entryDx=0;entryDy=0;exitX=0.5;exitY=0;exitDx=0;exitDy=0;exitPerimeter=0;" edge="1" parent="1" source="BozT58qzWdpXFKe4H0U9-10" target="BozT58qzWdpXFKe4H0U9-8">
          <mxGeometry width="50" height="50" relative="1" as="geometry">
            <mxPoint x="400" y="310" as="sourcePoint" />
            <mxPoint x="450" y="260" as="targetPoint" />
          </mxGeometry>
        </mxCell>
        <mxCell id="BozT58qzWdpXFKe4H0U9-22" value="" style="endArrow=none;html=1;rounded=0;exitX=0.25;exitY=0;exitDx=0;exitDy=0;entryX=0;entryY=0.5;entryDx=0;entryDy=0;entryPerimeter=0;" edge="1" parent="1" source="BozT58qzWdpXFKe4H0U9-12" target="BozT58qzWdpXFKe4H0U9-10">
          <mxGeometry width="50" height="50" relative="1" as="geometry">
            <mxPoint x="400" y="310" as="sourcePoint" />
            <mxPoint x="450" y="260" as="targetPoint" />
          </mxGeometry>
        </mxCell>
        <mxCell id="BozT58qzWdpXFKe4H0U9-23" value="" style="endArrow=none;html=1;rounded=0;entryX=1;entryY=0.5;entryDx=0;entryDy=0;entryPerimeter=0;exitX=0.75;exitY=0;exitDx=0;exitDy=0;" edge="1" parent="1" source="BozT58qzWdpXFKe4H0U9-13" target="BozT58qzWdpXFKe4H0U9-10">
          <mxGeometry width="50" height="50" relative="1" as="geometry">
            <mxPoint x="400" y="310" as="sourcePoint" />
            <mxPoint x="450" y="260" as="targetPoint" />
          </mxGeometry>
        </mxCell>
        <mxCell id="BozT58qzWdpXFKe4H0U9-24" value="" style="endArrow=none;html=1;rounded=0;entryX=1;entryY=0;entryDx=0;entryDy=0;exitX=0.75;exitY=0;exitDx=0;exitDy=0;" edge="1" parent="1" target="BozT58qzWdpXFKe4H0U9-14">
          <mxGeometry width="50" height="50" relative="1" as="geometry">
            <mxPoint x="385" y="373" as="sourcePoint" />
            <mxPoint x="290" y="315" as="targetPoint" />
          </mxGeometry>
        </mxCell>
        <mxCell id="BozT58qzWdpXFKe4H0U9-25" value="" style="endArrow=none;html=1;rounded=0;entryX=0.68;entryY=1;entryDx=0;entryDy=0;entryPerimeter=0;" edge="1" parent="1" source="BozT58qzWdpXFKe4H0U9-14" target="BozT58qzWdpXFKe4H0U9-12">
          <mxGeometry width="50" height="50" relative="1" as="geometry">
            <mxPoint x="395" y="383" as="sourcePoint" />
            <mxPoint x="300" y="325" as="targetPoint" />
          </mxGeometry>
        </mxCell>
        <mxCell id="BozT58qzWdpXFKe4H0U9-26" value="&lt;font color=&quot;#000033&quot;&gt;true&lt;/font&gt;" style="text;strokeColor=none;align=center;fillColor=none;html=1;verticalAlign=middle;whiteSpace=wrap;rounded=0;" vertex="1" parent="1">
          <mxGeometry x="90" y="295" width="90" height="45" as="geometry" />
        </mxCell>
        <mxCell id="BozT58qzWdpXFKe4H0U9-27" value="&lt;font color=&quot;#000033&quot;&gt;false&lt;/font&gt;" style="text;strokeColor=none;align=center;fillColor=none;html=1;verticalAlign=middle;whiteSpace=wrap;rounded=0;" vertex="1" parent="1">
          <mxGeometry x="290" y="295" width="90" height="45" as="geometry" />
        </mxCell>
      </root>
    </mxGraphModel>
  </diagram>
</mxfile>
